<?xml version="1.0" standalone="no"?>
<!DOCTYPE svg PUBLIC "-//W3C//DTD SVG 20010904//EN"
 "http://www.w3.org/TR/2001/REC-SVG-20010904/DTD/svg10.dtd">
<svg version="1.0" xmlns="http://www.w3.org/2000/svg"
 width="502.000000pt" height="660.000000pt" viewBox="0 0 502.000000 660.000000"
 preserveAspectRatio="xMidYMid meet">

<g transform="translate(0.000000,660.000000) scale(0.100000,-0.100000)"
fill="#000000" stroke="none">
<path d="M4230 6161 c-18 -5 -37 -30 -71 -94 -49 -94 -69 -122 -69 -96 0 8 4
19 9 25 5 5 12 20 16 34 3 14 -8 1 -25 -28 -17 -29 -29 -59 -26 -65 3 -9 5 -9
5 1 1 6 5 12 10 12 17 0 -20 -90 -55 -133 -31 -40 -44 -64 -101 -185 -14 -29
-35 -65 -47 -80 -13 -15 -33 -47 -46 -71 -32 -63 -100 -148 -100 -124 -1 17
-1 17 -12 -1 -8 -14 -8 -21 -1 -23 17 -6 2 -44 -44 -111 -26 -38 -43 -56 -43
-45 -1 14 -4 13 -15 -7 -16 -27 -20 -54 -5 -30 5 8 12 12 15 8 4 -4 -5 -24
-19 -45 -14 -20 -26 -43 -26 -50 0 -6 -11 -24 -24 -38 -22 -23 -25 -24 -29 -8
-2 10 -3 5 -1 -10 2 -16 -3 -41 -11 -56 -15 -29 -20 -30 -92 -15 -38 7 -37 39
1 103 20 32 36 61 36 64 0 3 22 38 50 79 27 40 50 80 50 88 0 8 18 35 40 59
29 32 40 52 40 76 0 18 7 38 15 45 8 7 15 18 15 24 0 6 16 31 35 55 30 38 35
51 35 97 0 42 -3 54 -16 54 -8 0 -13 -4 -10 -9 4 -5 -2 -7 -13 -4 -13 3 -24
-5 -39 -29 -12 -18 -32 -46 -44 -63 -13 -16 -40 -51 -60 -78 -23 -29 -38 -60
-38 -76 0 -15 -8 -36 -17 -47 -10 -10 -28 -39 -41 -64 -13 -25 -28 -54 -35
-65 -7 -11 -30 -52 -51 -90 -44 -79 -76 -123 -76 -106 0 6 -6 11 -14 11 -8 0
-16 6 -19 13 -4 10 -7 10 -18 0 -16 -16 -29 -17 -29 -3 0 6 7 10 15 10 8 0 15
4 15 8 0 16 -214 216 -218 204 -5 -15 -32 -16 -32 -2 0 6 7 10 15 10 8 0 15 5
15 10 0 6 -7 13 -15 16 -8 4 -15 15 -15 25 0 10 -5 19 -12 19 -12 0 -20 6 -84
70 -45 44 -54 48 -54 25 0 -8 -4 -15 -10 -15 -14 0 -12 28 2 32 7 3 -10 27
-41 57 -39 40 -55 51 -64 42 -14 -14 -27 -14 -27 -1 0 6 7 10 15 10 25 0 17
15 -29 58 -47 44 -61 50 -70 30 -5 -10 -7 -10 -12 0 -4 9 -195 12 -905 12
l-899 0 0 -1370 0 -1370 -190 0 -190 0 0 -1470 0 -1470 1610 0 1610 0 0 1470
c0 1300 2 1470 15 1470 13 0 15 36 15 265 l0 265 -150 0 c-147 0 -150 0 -138
-20 11 -16 9 -23 -10 -40 -19 -18 -22 -32 -24 -103 -4 -154 3 -251 18 -263 32
-26 14 -34 -75 -34 -90 0 -121 5 -121 20 0 5 8 10 17 12 15 3 17 23 15 211
l-2 207 81 0 c57 0 78 3 73 11 -5 9 -59 10 -193 6 -102 -4 -279 -7 -393 -7
l-208 0 0 -24 c0 -14 -4 -28 -10 -31 -22 -14 0 -86 48 -152 12 -17 22 -34 22
-38 0 -3 16 -27 35 -52 19 -25 35 -51 35 -58 0 -7 16 -28 35 -48 19 -20 35
-40 35 -45 0 -18 -117 -29 -167 -16 -19 5 -85 96 -137 189 -10 17 -27 47 -40
67 -19 32 -21 46 -16 90 8 60 39 92 105 107 26 6 -192 9 -599 9 -499 0 -640 3
-646 13 -36 57 -46 411 -16 562 58 301 222 580 456 778 67 57 219 159 236 159
7 0 14 4 16 8 5 14 180 79 284 107 150 39 298 52 447 37 189 -19 312 -51 452
-117 139 -66 289 -170 382 -265 36 -37 45 -42 53 -30 8 12 10 9 10 -12 0 -15
12 -42 28 -60 36 -42 122 -157 122 -163 0 -2 20 -44 44 -93 98 -202 125 -313
133 -563 5 -156 3 -199 -12 -265 -9 -44 -22 -82 -29 -86 -6 -4 89 -8 212 -8
l222 0 0 80 0 80 -185 0 c-117 0 -185 4 -185 10 0 6 68 10 185 10 l185 0 0
164 c0 136 -3 165 -15 170 -8 3 -15 10 -15 16 0 5 7 10 15 10 8 0 15 6 15 13
0 21 -22 37 -53 37 -22 0 -28 4 -23 15 3 8 1 15 -4 15 -6 0 -10 6 -10 13 0 13
-111 127 -124 127 -3 0 -6 -7 -6 -15 0 -8 -4 -15 -10 -15 -14 0 -12 28 2 32
11 4 -41 68 -56 68 -13 0 -5 -23 12 -36 11 -9 13 -13 4 -14 -16 0 -42 24 -42
38 0 6 6 13 13 16 9 5 9 7 0 12 -12 6 14 63 56 122 11 17 21 33 21 37 0 4 15
29 34 55 18 25 48 73 66 106 18 32 40 67 49 78 12 14 16 39 16 101 0 46 -4 87
-8 92 -5 4 -94 9 -198 11 -120 2 -189 7 -189 13 0 6 20 36 44 67 24 32 60 89
80 129 20 39 42 75 50 80 17 10 116 201 116 224 0 9 18 38 39 64 22 26 42 58
45 71 4 13 19 45 35 72 31 52 46 92 36 92 -16 0 -55 -52 -55 -72 0 -13 -9 -30
-20 -38 -11 -8 -20 -26 -20 -40 0 -14 -9 -32 -20 -40 -11 -8 -20 -21 -20 -30
0 -9 -9 -22 -20 -30 -11 -8 -20 -25 -20 -38 0 -21 -20 -52 -34 -52 -4 0 1 16
9 36 8 20 15 43 15 52 0 8 15 33 33 56 41 51 150 264 142 276 -4 6 -12 10 -18
10 -13 0 -100 -140 -112 -180 -4 -14 -24 -47 -45 -75 -21 -27 -41 -61 -45 -74
-19 -64 -150 -250 -164 -235 -3 4 0 9 7 11 6 3 12 12 12 20 0 9 9 24 21 34 12
10 19 23 17 28 -1 6 -20 -13 -41 -41 -29 -40 -36 -58 -32 -78 7 -33 -5 -66
-39 -105 -20 -23 -26 -26 -26 -12 0 9 5 17 10 17 6 0 10 5 10 10 0 19 -16 10
-33 -19 -18 -31 -25 -69 -7 -41 21 32 10 -15 -11 -50 -19 -30 -23 -32 -28 -17
-6 17 -8 16 -19 -8 -7 -15 -10 -30 -7 -33 3 -3 5 0 5 6 0 7 5 12 10 12 13 0
-23 -72 -44 -89 -11 -9 -27 -11 -53 -5 l-38 7 30 7 30 8 -32 1 c-34 1 -41 12
-23 34 20 24 55 83 79 132 13 28 36 66 51 85 15 19 32 49 38 67 6 17 31 61 56
98 25 36 48 75 52 87 3 12 16 32 28 45 18 20 37 53 97 175 13 26 11 31 -6 14
-8 -8 -15 -21 -15 -28 0 -8 -9 -20 -20 -28 -11 -8 -20 -22 -20 -32 0 -10 -4
-18 -10 -18 -5 0 -10 -8 -10 -18 0 -10 -9 -24 -20 -32 -11 -8 -20 -22 -20 -32
0 -10 -4 -18 -10 -18 -5 0 -10 -8 -10 -18 0 -10 -9 -24 -20 -32 -11 -8 -20
-21 -20 -28 0 -8 -13 -27 -30 -42 -18 -17 -30 -38 -30 -54 0 -14 -4 -26 -10
-26 -5 0 -10 -9 -10 -20 0 -11 -4 -20 -10 -20 -5 0 -10 -8 -10 -18 0 -10 -9
-24 -20 -32 -11 -8 -20 -21 -20 -30 0 -9 -9 -22 -20 -30 -11 -8 -20 -26 -20
-40 0 -14 -9 -32 -20 -40 -11 -8 -20 -22 -20 -31 0 -16 -28 -35 -37 -25 -2 2
10 25 26 52 17 27 46 79 65 115 19 36 46 79 59 95 13 16 29 43 35 61 6 17 29
60 51 94 23 35 41 68 41 75 0 6 16 32 36 58 19 26 55 89 79 140 23 51 61 117
84 147 22 29 43 67 47 83 4 17 16 46 29 66 12 19 39 69 59 110 48 95 61 108
53 55 -4 -22 -11 -41 -17 -43 -5 -2 -10 -12 -10 -23 0 -10 -4 -19 -10 -19 -5
0 -10 -9 -10 -20 0 -11 -4 -20 -10 -20 -5 0 -10 -9 -10 -19 0 -11 -5 -21 -11
-23 -6 -2 -9 -14 -7 -27 5 -40 98 156 98 208 0 22 -3 41 -7 40 -5 -1 -19 -4
-33 -8z m-1573 -517 c-3 -3 -12 -4 -19 -1 -8 3 -5 6 6 6 11 1 17 -2 13 -5z
m1022 -140 c-18 -30 -37 -54 -41 -54 -4 0 -8 -9 -8 -20 0 -24 -15 -27 -24 -4
-3 9 7 34 24 59 17 24 30 47 30 51 0 4 10 19 23 32 36 39 34 0 -4 -64z m-899
25 c0 -7 8 -18 18 -25 11 -9 13 -13 4 -14 -16 0 -42 24 -42 39 0 6 5 11 10 11
6 0 10 -5 10 -11z m97 -105 c-3 -3 -12 -4 -19 -1 -8 3 -5 6 6 6 11 1 17 -2 13
-5z m-134 -21 c-89 -2 -237 -2 -330 0 -92 1 -19 3 162 3 182 0 257 -2 168 -3z
m853 -39 c-19 -19 -21 -11 -4 16 7 11 14 16 16 10 2 -5 -4 -17 -12 -26z m480
-20 c-19 -18 -21 -11 -4 19 7 14 13 17 15 10 3 -7 -3 -20 -11 -29z m-1848 19
c-10 -2 -26 -2 -35 0 -10 3 -2 5 17 5 19 0 27 -2 18 -5z m1342 -38 c0 -8 -4
-15 -10 -15 -5 0 -10 -9 -10 -20 0 -11 -4 -20 -10 -20 -5 0 -10 -8 -10 -18 0
-10 -9 -24 -20 -32 -11 -8 -20 -22 -20 -32 0 -10 -4 -18 -10 -18 -5 0 -10 -8
-10 -18 0 -10 -9 -24 -20 -32 -11 -8 -20 -22 -20 -32 0 -10 -4 -18 -10 -18 -5
0 -10 -9 -10 -20 0 -11 -4 -20 -10 -20 -5 0 -10 -9 -10 -20 0 -11 -2 -20 -4
-20 -2 0 -11 -3 -19 -6 -20 -7 3 39 83 166 33 52 69 116 81 143 21 46 39 61
39 32z m-580 -21 c0 -8 -4 -12 -10 -9 -5 3 -10 10 -10 16 0 5 5 9 10 9 6 0 10
-7 10 -16z m1052 -32 c-7 -2 -12 -10 -12 -18 0 -14 -43 -64 -54 -64 -11 0 9
36 38 72 17 20 33 32 35 26 2 -7 -1 -14 -7 -16z m-972 -33 c0 -7 8 -18 18 -25
11 -9 13 -13 4 -14 -16 0 -42 24 -42 39 0 6 5 11 10 11 6 0 10 -5 10 -11z m66
-86 c-10 -10 -19 5 -10 18 6 11 8 11 12 0 2 -7 1 -15 -2 -18z m785 -82 c-17
-16 -31 -39 -31 -51 0 -12 -13 -35 -30 -50 -16 -15 -30 -36 -30 -46 0 -13 -3
-15 -11 -7 -13 13 6 52 66 134 24 33 47 70 52 82 7 21 8 21 11 -6 3 -21 -4
-35 -27 -56z m-754 63 c-3 -3 -12 -4 -19 -1 -8 3 -5 6 6 6 11 1 17 -2 13 -5z
m-212 -25 c10 -10 -47 -1 -80 12 -12 5 -2 6 25 2 25 -3 49 -10 55 -14z m45 -3
c0 -2 -7 -7 -16 -10 -8 -3 -12 -2 -9 4 6 10 25 14 25 6z m50 -22 c0 -14 -3
-14 -15 -4 -8 7 -15 14 -15 16 0 2 7 4 15 4 8 0 15 -7 15 -16z m157 -6 c-3 -8
-6 -5 -6 6 -1 11 2 17 5 13 3 -3 4 -12 1 -19z m-20 -32 c-3 -7 0 -19 6 -25 9
-9 7 -11 -8 -5 -35 12 -37 16 -18 30 23 17 26 17 20 0z m413 -126 c13 -8 13
-10 -2 -10 -9 0 -20 5 -23 10 -8 13 5 13 25 0z m495 -13 c28 -2 -19 -4 -103
-5 -84 -1 -151 1 -149 6 5 6 130 6 252 -1z m-472 -94 c-13 -2 -35 -2 -50 0
-16 2 -5 4 22 4 28 0 40 -2 28 -4z m128 -32 c-12 -10 -21 -26 -21 -35 0 -9 -4
-16 -10 -16 -5 0 -10 -9 -10 -20 0 -11 -4 -20 -10 -20 -5 0 -10 -10 -10 -22 0
-14 -3 -19 -10 -12 -6 6 0 29 17 64 28 61 65 108 71 90 2 -6 -5 -19 -17 -29z
m389 20 c0 -6 -4 -12 -9 -16 -6 -3 -24 -33 -41 -68 -37 -73 -90 -162 -119
-197 -17 -20 -20 -22 -21 -7 0 9 5 17 10 17 6 0 10 5 10 11 0 20 -30 -13 -46
-49 -10 -26 -11 -37 -3 -43 8 -5 8 -8 0 -13 -6 -4 -11 -2 -11 5 0 8 -4 8 -15
-1 -12 -10 -15 -9 -15 6 -1 11 -19 35 -42 54 -22 19 -53 47 -68 63 -31 31 -40
34 -40 12 0 -8 7 -15 15 -15 8 0 15 -6 15 -14 0 -7 7 -19 15 -26 12 -10 13
-15 3 -21 -16 -10 -28 -2 -28 19 0 10 -9 23 -20 30 -21 13 -28 52 -8 52 7 0 5
7 -5 18 -14 16 -13 22 13 80 18 37 35 62 44 62 9 0 16 5 16 10 0 7 53 10 160
8 144 -3 159 -1 164 15 4 18 26 24 26 8z m-537 -27 c-7 -20 -40 -17 -45 4 -4
15 0 17 23 14 19 -3 26 -9 22 -18z m-52 -16 c8 -15 8 -18 0 -14 -6 4 -16 16
-22 28 -8 15 -8 18 0 14 6 -4 16 -16 22 -28z m639 -58 c0 -5 -5 -10 -11 -10
-5 0 -7 5 -4 10 3 6 8 10 11 10 2 0 4 -4 4 -10z m-20 -35 c0 -8 -4 -15 -10
-15 -5 0 -7 7 -4 15 4 8 8 15 10 15 2 0 4 -7 4 -15z m-34 -61 c-19 -18 -21
-11 -4 19 7 14 13 17 15 10 3 -7 -3 -20 -11 -29z m-432 -8 c-3 -9 -10 -13 -15
-10 -5 3 -3 11 4 19 15 16 19 13 11 -9z m398 -44 c-7 -2 -12 -10 -12 -19 0 -8
-7 -22 -16 -31 -15 -15 -16 -14 -9 8 13 40 38 75 44 59 2 -7 -1 -15 -7 -17z
m-152 -71 c0 -6 -4 -13 -10 -16 -5 -3 -10 1 -10 9 0 9 5 16 10 16 6 0 10 -4
10 -9z m86 -37 c-13 -12 -16 -12 -16 -2 0 19 24 42 28 28 2 -5 -4 -17 -12 -26z
m-40 -80 c-19 -19 -21 -2 -4 29 11 19 13 20 16 5 2 -10 -4 -25 -12 -34z m-172
20 c11 -28 6 -38 -9 -18 -8 10 -15 22 -15 27 0 13 18 7 24 -9z m90 -170 c3 -8
2 -12 -4 -9 -6 3 -10 10 -10 16 0 14 7 11 14 -7z m203 -30 c-3 -3 -12 -4 -19
-1 -8 3 -5 6 6 6 11 1 17 -2 13 -5z m-193 -22 c3 7 4 2 1 -12 -2 -14 -5 -38
-5 -55 -1 -25 -3 -27 -9 -10 -5 11 -11 38 -15 60 -6 36 -5 38 8 22 11 -14 15
-15 20 -5z m236 -22 c0 -5 -2 -10 -4 -10 -3 0 -8 5 -11 10 -3 6 -1 10 4 10 6
0 11 -4 11 -10z m40 -30 c0 -5 -7 -10 -15 -10 -8 0 -15 5 -15 10 0 6 7 10 15
10 8 0 15 -4 15 -10z m-80 -284 c0 -3 -4 -8 -10 -11 -5 -3 -10 -1 -10 4 0 6 5
11 10 11 6 0 10 -2 10 -4z m-120 -116 c0 -5 -5 -10 -11 -10 -5 0 -7 5 -4 10 3
6 8 10 11 10 2 0 4 -4 4 -10z m-910 -270 c11 -11 20 -26 20 -34 0 -7 12 -40
27 -72 22 -47 28 -54 31 -36 2 12 8 20 13 17 17 -11 9 -66 -22 -169 -45 -147
-64 -159 -95 -58 -9 31 -20 62 -24 67 -4 6 -13 33 -20 60 -8 28 -19 59 -25 70
-7 11 -18 39 -25 63 -8 24 -24 52 -37 62 -46 36 -29 48 70 49 54 1 71 -3 87
-19z m-1200 0 c13 -8 15 -44 15 -225 l0 -215 -65 1 c-60 1 -140 16 -97 18 20
1 20 6 17 231 -1 118 -5 146 -17 156 -10 6 -14 18 -10 28 5 13 20 16 74 16 37
0 75 -5 83 -10z m195 -30 c27 -26 35 -42 35 -69 0 -41 -42 -101 -71 -101 -30
0 -22 -20 11 -27 93 -18 93 -150 0 -198 -29 -15 -111 -21 -123 -9 -9 9 4 34
18 34 18 0 25 23 25 85 0 43 -5 60 -25 84 -26 30 -26 30 -5 41 17 9 20 21 20
75 0 54 -3 67 -20 77 -11 7 -20 21 -20 32 0 16 6 18 60 14 52 -4 65 -9 95 -38z
m562 18 c39 -37 24 -128 -21 -128 -15 0 -16 7 -10 45 5 36 3 50 -11 65 -17 19
-13 40 7 40 7 0 22 -10 35 -22z m-1006 -137 c44 -44 40 -84 -13 -133 -23 -21
-45 -38 -49 -38 -4 0 -28 -32 -54 -70 -26 -39 -55 -75 -65 -80 -34 -18 -70
-11 -101 19 -51 51 -32 117 64 226 95 106 163 130 218 76z m1104 -20 c6 -19 1
-39 -18 -78 -11 -25 -37 -31 -38 -10 0 6 -2 30 -4 51 -2 21 -2 43 1 48 10 16
53 8 59 -11z m257 -134 c0 -60 3 -70 24 -84 37 -24 30 -40 -18 -45 -50 -5 -88
1 -88 13 0 4 10 19 23 33 22 23 23 32 19 115 -2 50 -1 98 3 108 12 29 36 -61
37 -140z m-582 62 c0 -34 22 -79 38 -79 8 0 19 -13 25 -29 6 -17 21 -32 34
-36 36 -9 30 -42 -11 -53 -81 -23 -185 24 -205 93 -18 63 2 101 74 138 34 17
45 9 45 -34z m1220 -224 c0 -20 -186 -208 -260 -262 -142 -106 -294 -174 -520
-235 -76 -21 -107 -23 -290 -23 -171 1 -211 4 -244 18 -21 9 -51 17 -65 17
-31 0 -168 45 -251 82 -148 67 -310 189 -440 333 l-54 60 94 5 c52 3 369 7
704 8 336 1 611 4 613 6 2 2 163 4 358 5 318 2 355 0 355 -14z m-1652 -1939
c3 -14 0 -18 -14 -14 -48 14 -49 13 -49 -16 0 -16 6 -31 14 -34 9 -3 11 1 6
17 -5 18 -2 21 19 21 22 0 26 -4 26 -30 0 -29 -2 -30 -43 -30 -51 0 -67 13
-67 55 0 42 17 56 65 53 30 -2 41 -8 43 -22z m142 4 c0 -21 -24 -28 -35 -10
-3 6 -10 10 -16 10 -5 0 -9 -4 -9 -10 0 -5 7 -10 15 -10 8 0 15 -7 15 -15 0
-8 -7 -15 -15 -15 -8 0 -15 -4 -15 -10 0 -5 13 -7 30 -3 23 4 30 2 30 -11 0
-13 -11 -16 -50 -16 l-50 0 0 55 0 55 50 0 c43 0 50 -3 50 -20z m93 -2 l16
-23 0 23 c1 35 35 25 39 -12 8 -70 -28 -101 -61 -53 l-16 22 0 -22 c-1 -14 -7
-23 -16 -23 -12 0 -15 13 -15 55 0 47 3 55 19 55 10 0 26 -10 34 -22z m193 11
c12 -20 -14 -35 -36 -21 -23 14 -30 15 -30 3 0 -5 9 -11 21 -14 23 -6 17 -27
-7 -27 -8 0 -14 -4 -14 -9 0 -6 16 -7 35 -4 28 4 35 2 35 -11 0 -13 -11 -16
-55 -16 l-55 0 0 55 0 55 49 0 c28 0 53 -5 57 -11z m132 -1 c5 -7 9 -32 9 -55
-1 -34 -5 -43 -20 -43 -10 0 -20 7 -23 15 -4 8 -10 15 -15 15 -5 0 -9 -7 -9
-15 0 -8 -9 -15 -20 -15 -18 0 -20 7 -20 55 l0 55 44 0 c24 0 48 -6 54 -12z
m141 -37 c11 -27 21 -51 21 -54 0 -2 -27 -4 -60 -4 -67 0 -67 1 -33 75 22 47
46 41 72 -17z m91 4 c0 -46 7 -54 27 -34 13 13 33 4 33 -17 0 -10 -13 -14 -50
-14 l-50 0 0 55 c0 48 2 55 20 55 17 0 20 -7 20 -45z m254 29 c17 -43 -11 -82
-48 -68 -11 4 -16 1 -16 -10 0 -9 -8 -16 -20 -16 -18 0 -20 7 -20 55 l0 55 49
0 c35 0 51 -4 55 -16z m129 -31 c9 -27 17 -51 17 -54 0 -3 -27 -6 -60 -6 -40
0 -59 4 -57 11 37 91 40 96 61 96 17 0 26 -10 39 -47z m147 33 c0 -7 -9 -22
-20 -34 -11 -12 -20 -23 -20 -25 0 -3 9 -7 20 -10 39 -10 20 -27 -30 -27 -55
0 -64 14 -30 45 11 10 20 24 20 32 0 7 -9 13 -20 13 -11 0 -20 4 -20 10 0 5
23 9 50 9 31 -1 50 -6 50 -13z m-1255 -261 c0 -25 -4 -30 -27 -33 -41 -5 -34
-22 8 -22 21 0 33 -4 29 -10 -3 -5 -28 -10 -56 -10 -44 0 -49 2 -49 23 0 28
17 47 42 47 10 0 18 5 18 11 0 6 -7 8 -15 5 -8 -3 -22 -9 -30 -12 -9 -4 -15
-1 -15 8 0 24 12 29 55 26 37 -3 40 -5 40 -33z m150 -20 l0 -50 -38 -3 c-49
-4 -67 11 -67 58 0 43 9 50 65 47 l40 -2 0 -50z m144 41 c18 -22 -3 -56 -34
-56 -14 0 -25 -4 -25 -10 0 -5 16 -10 35 -10 19 0 35 -4 35 -10 0 -5 -25 -10
-55 -10 -52 0 -55 1 -55 24 0 14 5 28 11 32 8 5 7 9 -1 14 -7 4 -10 15 -7 24
8 21 80 22 96 2z m146 -41 l0 -50 -38 -3 c-37 -3 -67 10 -67 30 0 6 15 7 37 3
33 -6 36 -5 23 10 -12 14 -12 18 0 25 8 5 11 12 7 16 -4 4 -13 2 -19 -4 -13
-13 -48 -16 -48 -4 0 20 28 33 65 30 l40 -3 0 -50z m212 6 c3 -50 -6 -61 -52
-61 -30 0 -55 15 -55 32 0 12 35 9 48 -4 13 -13 27 -5 17 11 -3 6 -17 11 -31
11 -29 0 -41 24 -23 46 8 10 26 14 53 12 40 -3 40 -3 43 -47z m101 28 l13 -21
18 21 c34 39 51 27 51 -34 0 -48 -2 -55 -20 -55 -14 0 -20 7 -20 23 -1 21 -1
21 -15 3 -11 -15 -17 -16 -29 -7 -11 9 -15 8 -20 -4 -3 -8 -12 -15 -21 -15
-12 0 -15 12 -15 55 0 50 2 55 23 55 12 0 28 -9 35 -21z m280 9 c7 -7 12 -26
12 -43 0 -42 -16 -55 -67 -55 l-43 0 0 55 0 55 43 0 c24 0 48 -5 55 -12z m152
-3 c0 -8 -7 -15 -15 -15 -8 0 -15 -7 -15 -15 0 -8 -6 -15 -14 -15 -17 0 -31
-18 -22 -27 3 -3 12 0 21 7 18 15 45 6 45 -15 0 -12 -12 -15 -55 -15 l-55 0 0
55 0 55 55 0 c42 0 55 -3 55 -15z m-320 -194 c0 -5 -5 -11 -10 -13 -7 -2 -1
-26 15 -61 21 -49 23 -58 10 -63 -8 -4 -22 -1 -30 6 -13 11 -20 10 -40 0 -14
-7 -28 -10 -32 -7 -8 9 17 86 35 103 7 8 10 14 5 14 -10 1 28 30 39 30 4 0 8
-4 8 -9z m-663 -29 c6 -4 13 -25 15 -47 2 -22 8 -40 13 -40 6 0 11 18 13 40 6
69 42 71 42 1 0 -50 -13 -66 -55 -66 -43 0 -55 16 -55 72 0 48 4 54 27 40z
m293 -43 c6 -56 24 -57 28 -1 3 34 7 42 23 42 16 0 19 -7 19 -43 0 -51 -13
-67 -55 -67 -42 0 -55 16 -55 65 0 72 32 75 40 4z m158 31 c20 -22 52 -18 52
5 0 7 8 12 18 11 14 -2 17 -13 17 -57 0 -43 -3 -54 -17 -57 -14 -3 -18 3 -18
24 l0 28 -16 -22 c-12 -17 -19 -20 -29 -12 -9 8 -14 6 -19 -5 -3 -8 -12 -15
-21 -15 -12 0 -15 12 -15 53 0 72 13 84 48 47z m330 -13 l11 -22 0 21 c1 22
23 38 35 27 10 -10 7 -101 -4 -108 -16 -10 -50 5 -50 21 0 8 -4 14 -10 14 -5
0 -10 -9 -10 -20 0 -11 -7 -20 -15 -20 -19 0 -22 106 -2 113 19 6 33 -2 45
-26z m-850 10 c-9 -8 -18 -31 -20 -53 -2 -31 -7 -39 -23 -39 -15 0 -20 8 -23
40 -2 22 -8 42 -13 43 -27 10 -2 22 44 22 44 -1 50 -3 35 -13z m290 -9 c2 -13
-3 -18 -17 -18 -12 0 -21 5 -21 10 0 6 -7 10 -15 10 -11 0 -15 -11 -15 -36 0
-36 0 -36 23 -21 31 20 58 7 37 -18 -16 -19 -78 -15 -91 7 -13 19 -11 62 3 76
19 19 92 11 96 -10z"/>
<path d="M4055 4700 c-3 -5 -1 -10 4 -10 6 0 11 5 11 10 0 6 -2 10 -4 10 -3 0
-8 -4 -11 -10z"/>
<path d="M4012 4638 c-7 -7 -12 -16 -12 -21 0 -5 7 -1 16 8 9 9 14 18 12 20
-2 3 -10 -1 -16 -7z"/>
<path d="M3287 2964 c-3 -3 -89 -6 -191 -6 -179 1 -187 0 -214 -22 -15 -12
-65 -44 -111 -69 -69 -39 -92 -47 -134 -47 l-51 0 74 46 c41 25 89 52 106 59
81 34 55 36 -423 34 -257 -1 -515 -5 -573 -8 l-105 -6 42 -42 c179 -176 447
-310 686 -342 88 -12 206 -14 285 -5 46 6 58 13 102 58 28 28 50 45 50 39 0
-7 -5 -13 -11 -13 -6 0 -9 -12 -7 -27 4 -37 28 -40 117 -13 196 58 377 162
495 284 l69 71 -44 7 c-57 8 -154 10 -162 2z m-229 -61 c-6 -29 66 -147 91
-151 32 -5 22 -20 -32 -49 -50 -28 -77 -23 -38 6 l24 18 -39 69 -39 69 -7 -50
c-16 -111 -29 -121 -91 -73 -23 18 -45 37 -49 42 -17 25 -18 -8 -1 -65 18 -61
21 -64 54 -69 39 -6 31 -14 -36 -34 -30 -9 -47 -11 -51 -4 -4 6 -1 14 7 19 11
6 10 21 -6 84 -10 42 -25 80 -33 84 -8 5 -12 13 -8 20 11 17 60 13 82 -7 33
-30 76 -62 84 -62 5 0 11 32 15 70 6 62 10 72 34 85 35 19 43 18 39 -2z m-873
-18 c22 -13 50 -29 63 -34 25 -12 26 -15 12 -42 -15 -26 -23 -24 -38 10 -13
29 -83 71 -118 71 -23 0 -57 -19 -76 -44 -39 -47 -11 -108 65 -145 55 -27 84
-27 92 0 4 11 5 21 3 23 -1 1 -21 10 -43 21 -58 27 -21 31 48 5 53 -20 75 -40
43 -40 -8 0 -19 -14 -25 -31 -11 -31 -12 -32 -56 -26 -53 8 -88 24 -132 63
-44 40 -57 76 -39 118 32 77 122 100 201 51z m354 5 l36 -1 -52 -22 c-29 -13
-55 -26 -59 -30 -4 -4 -19 -7 -34 -7 -15 0 -35 -9 -45 -20 -13 -14 -31 -20
-61 -20 l-42 0 5 40 c5 34 3 40 -13 40 -25 0 -6 17 26 23 14 3 65 4 114 1 49
-2 105 -4 125 -4z m630 -44 c-15 -13 -49 -25 -49 -17 0 5 8 12 18 14 24 6 36
8 31 3z m-209 -42 c0 -8 -4 -12 -10 -9 -5 3 -10 10 -10 16 0 5 5 9 10 9 6 0
10 -7 10 -16z m-454 -15 c3 -5 0 -9 -5 -9 -18 0 -12 -24 16 -55 l26 -29 28 34
c20 24 26 37 18 46 -14 17 44 29 68 15 10 -6 13 -11 6 -11 -6 0 -33 -27 -61
-59 -38 -46 -49 -66 -48 -93 1 -30 4 -33 31 -33 17 0 31 -4 33 -10 2 -11 -119
-19 -155 -10 -37 9 -26 25 17 25 39 0 40 1 40 36 0 26 -11 51 -37 88 -21 28
-43 55 -50 59 -8 5 -11 12 -9 16 6 10 75 1 82 -10z m44 -43 c-18 -18 -34 8
-19 35 l12 23 9 -24 c5 -15 5 -27 -2 -34z m-103 -32 c-3 -4 -14 -3 -24 0 -15
6 -15 8 -3 16 16 10 39 -4 27 -16z m512 -31 c2 -2 -8 -3 -22 -3 -21 0 -27 5
-27 22 0 21 0 21 23 2 12 -10 24 -20 26 -21z"/>
<path d="M3465 2884 c-230 -221 -511 -344 -825 -361 -349 -19 -693 109 -944
351 -44 42 -84 75 -89 73 -14 -4 111 -127 187 -184 350 -260 786 -330 1206
-192 82 27 216 94 299 149 112 75 275 229 259 245 -2 3 -44 -34 -93 -81z"/>
<path d="M2490 1020 c0 -13 5 -20 13 -17 6 2 12 10 12 17 0 7 -6 15 -12 18 -8
2 -13 -5 -13 -18z"/>
<path d="M2641 994 c0 -11 3 -14 6 -6 3 7 2 16 -1 19 -3 4 -6 -2 -5 -13z"/>
<path d="M2970 1015 c0 -18 4 -23 15 -19 8 4 15 12 15 19 0 7 -7 15 -15 19
-11 4 -15 -1 -15 -19z"/>
<path d="M2145 790 c4 -6 11 -8 16 -5 14 9 11 15 -7 15 -8 0 -12 -5 -9 -10z"/>
<path d="M2142 748 c6 -18 28 -21 28 -4 0 9 -7 16 -16 16 -9 0 -14 -5 -12 -12z"/>
<path d="M2285 790 c-3 -5 1 -10 9 -10 9 0 16 5 16 10 0 6 -4 10 -9 10 -6 0
-13 -4 -16 -10z"/>
<path d="M2648 793 c7 -3 16 -2 19 1 4 3 -2 6 -13 5 -11 0 -14 -3 -6 -6z"/>
<path d="M3030 765 c0 -26 3 -33 15 -29 8 4 15 16 15 29 0 13 -7 25 -15 29
-12 4 -15 -3 -15 -29z"/>
<path d="M3170 790 c0 -5 7 -10 16 -10 8 0 12 5 9 10 -3 6 -10 10 -16 10 -5 0
-9 -4 -9 -10z"/>
<path d="M4152 6126 c-16 -36 -15 -41 4 -22 8 9 14 24 12 33 -2 13 -6 10 -16
-11z"/>
<path d="M4133 5865 c-13 -13 -23 -31 -23 -40 0 -8 -4 -15 -10 -15 -5 0 -10
-13 -10 -28 0 -16 -8 -34 -20 -42 -11 -8 -20 -21 -20 -30 0 -9 9 -4 25 15 13
17 29 35 35 42 5 7 17 29 26 50 9 21 20 46 25 56 13 24 -2 20 -28 -8z"/>
<path d="M4015 5860 c-3 -5 -1 -10 4 -10 6 0 11 5 11 10 0 6 -2 10 -4 10 -3 0
-8 -4 -11 -10z"/>
<path d="M4258 5833 c12 -2 30 -2 40 0 9 3 -1 5 -23 4 -22 0 -30 -2 -17 -4z"/>
<path d="M4195 5760 c-3 -5 -1 -10 4 -10 6 0 11 5 11 10 0 6 -2 10 -4 10 -3 0
-8 -4 -11 -10z"/>
<path d="M3936 5731 c-4 -7 -5 -15 -2 -18 9 -9 19 4 14 18 -4 11 -6 11 -12 0z"/>
<path d="M4157 5696 c-4 -10 -5 -21 -2 -24 9 -9 17 6 13 25 -3 17 -4 17 -11
-1z"/>
<path d="M3901 5644 c0 -11 3 -14 6 -6 3 7 2 16 -1 19 -3 4 -6 -2 -5 -13z"/>
<path d="M3580 5559 c0 -6 -16 -27 -34 -47 -19 -20 -33 -38 -31 -41 7 -6 75
71 75 86 0 7 -2 13 -5 13 -3 0 -5 -5 -5 -11z"/>
<path d="M4075 5560 c-3 -5 -1 -10 4 -10 6 0 11 5 11 10 0 6 -2 10 -4 10 -3 0
-8 -4 -11 -10z"/>
<path d="M3832 5548 c-6 -6 -12 -18 -12 -26 0 -10 3 -10 16 2 8 9 14 21 12 26
-2 7 -8 6 -16 -2z"/>
<path d="M3502 5435 c0 -16 2 -22 5 -12 2 9 2 23 0 30 -3 6 -5 -1 -5 -18z"/>
<path d="M3762 5430 c-7 -11 -10 -20 -6 -20 7 0 34 27 34 34 0 13 -16 5 -28
-14z"/>
<path d="M3647 5236 c-19 -29 -14 -35 10 -11 8 8 13 20 11 26 -2 7 -12 0 -21
-15z"/>
<path d="M3375 5200 c-3 -5 -1 -10 4 -10 6 0 11 5 11 10 0 6 -2 10 -4 10 -3 0
-8 -4 -11 -10z"/>
<path d="M3875 5200 c-3 -5 -1 -10 4 -10 6 0 11 5 11 10 0 6 -2 10 -4 10 -3 0
-8 -4 -11 -10z"/>
<path d="M3572 5100 c-17 -27 -15 -35 4 -16 8 9 14 21 12 26 -2 6 -9 1 -16
-10z"/>
<path d="M2342 5065 c-265 -49 -486 -167 -683 -364 -246 -248 -370 -543 -372
-886 -1 -133 15 -286 33 -316 16 -25 18 -4 5 71 -107 616 240 1211 825 1418
154 54 237 67 430 67 157 -1 186 -4 281 -28 256 -66 441 -168 610 -336 100
-100 182 -214 240 -331 128 -261 160 -495 112 -819 -11 -75 14 -38 28 42 19
105 16 322 -5 442 -95 527 -519 947 -1050 1040 -108 18 -350 18 -454 0z"/>
<path d="M2328 5013 c-43 -8 -78 -18 -78 -23 0 -4 18 -10 40 -14 63 -10 80
-34 80 -111 0 -57 -3 -69 -26 -92 -21 -21 -32 -24 -60 -20 -19 3 -47 14 -62
25 -15 10 -49 26 -75 36 -46 17 -49 17 -70 0 -49 -41 -100 -91 -118 -116 l-20
-27 45 -19 c24 -11 57 -34 72 -51 15 -18 33 -30 39 -27 19 7 116 -14 159 -35
23 -11 56 -33 75 -49 26 -23 43 -30 77 -30 62 0 138 62 181 150 51 103 72 128
126 155 62 30 125 32 185 5 54 -24 137 -111 163 -169 24 -54 28 -150 7 -166
-31 -24 -48 -65 -45 -107 3 -37 -1 -48 -30 -81 -19 -21 -31 -42 -29 -46 3 -5
23 -11 45 -15 46 -7 141 -87 160 -135 9 -21 21 -30 47 -34 19 -3 47 -15 63
-26 16 -12 32 -21 36 -21 15 0 45 89 45 134 0 41 -2 47 -17 42 -14 -6 -38 3
-153 58 -20 9 -26 20 -28 51 -5 77 68 150 141 141 47 -5 139 -74 175 -131 39
-60 62 -179 68 -346 l5 -145 -43 -84 c-27 -53 -52 -90 -68 -98 -19 -10 -56
-12 -147 -7 -138 7 -208 22 -300 66 -36 17 -70 28 -78 26 -27 -11 -145 -101
-145 -111 0 -6 4 -18 10 -26 5 -9 5 -19 -1 -26 -14 -17 112 -23 381 -18 129 3
323 4 430 4 l196 0 12 60 c7 32 15 117 19 188 15 316 -95 624 -312 870 -177
201 -392 325 -682 393 -105 24 -375 25 -495 2z m597 -1453 c-16 -16 -33 -30
-39 -30 -6 0 -6 4 1 11 6 6 9 18 6 27 -4 10 -2 13 5 8 7 -4 20 -2 29 3 29 17
28 13 -2 -19z m-77 -19 c3 -8 -1 -12 -9 -9 -7 2 -15 10 -17 17 -3 8 1 12 9 9
7 -2 15 -10 17 -17z m19 -27 c-3 -3 -12 -4 -19 -1 -8 3 -5 6 6 6 11 1 17 -2
13 -5z"/>
<path d="M2065 4932 c-109 -50 -174 -91 -281 -178 -96 -78 -164 -151 -164
-178 0 -9 17 -35 39 -59 21 -23 49 -62 61 -87 46 -91 80 -131 134 -156 28 -13
63 -24 78 -24 15 0 29 -4 33 -10 3 -5 7 -47 8 -93 3 -65 8 -92 25 -121 12 -20
22 -46 22 -57 0 -11 9 -45 20 -77 15 -43 19 -70 14 -108 -6 -51 14 -149 52
-250 16 -41 16 -42 72 -45 32 -2 170 -2 307 1 l250 5 5 47 c5 45 7 48 90 107
47 33 91 61 98 61 7 0 23 -7 36 -15 12 -8 61 -29 107 -47 76 -28 97 -32 225
-36 l141 -4 21 36 c61 103 74 227 47 434 l-19 137 -77 78 c-64 64 -82 77 -109
77 -77 0 -141 -82 -106 -135 10 -16 26 -25 42 -25 14 0 32 -7 40 -15 9 -8 30
-15 48 -15 56 0 70 -18 62 -84 -8 -74 -32 -130 -60 -145 -20 -11 -28 -9 -61
13 -22 15 -52 26 -71 26 -30 0 -36 5 -56 46 -40 85 -112 134 -197 134 -24 0
-31 4 -31 20 0 11 5 20 10 20 6 0 17 18 26 40 9 22 22 40 30 40 10 0 14 13 14
44 0 28 7 52 20 69 61 78 58 133 -13 239 -79 118 -182 152 -282 94 -37 -22
-52 -41 -84 -104 -65 -128 -143 -196 -225 -197 -45 0 -58 5 -107 42 -58 44
-160 79 -206 70 -18 -3 -30 4 -54 34 -21 26 -44 42 -72 50 -23 7 -46 16 -50
20 -22 18 71 129 152 180 41 26 45 27 72 14 15 -8 37 -15 47 -15 11 0 25 -7
33 -16 25 -30 66 -45 93 -33 27 12 36 35 36 90 0 49 -17 67 -80 84 -80 21
-116 17 -205 -23z"/>
<path d="M3490 4960 c0 -5 5 -10 10 -10 6 0 10 5 10 10 0 6 -4 10 -10 10 -5 0
-10 -4 -10 -10z"/>
<path d="M3705 4920 c-3 -5 -1 -10 4 -10 6 0 11 5 11 10 0 6 -2 10 -4 10 -3 0
-8 -4 -11 -10z"/>
<path d="M4268 4913 c7 -3 16 -2 19 1 4 3 -2 6 -13 5 -11 0 -14 -3 -6 -6z"/>
<path d="M1558 4514 c-132 -180 -214 -423 -225 -665 -6 -141 15 -327 40 -358
10 -11 39 -13 157 -8 80 4 239 7 354 7 194 0 208 1 203 18 -35 107 -50 173
-56 257 -8 103 -33 213 -56 250 -19 28 -36 133 -29 172 6 29 4 33 -22 38 -105
23 -168 74 -217 178 -14 30 -38 67 -54 83 -15 16 -35 40 -44 53 l-15 24 -36
-49z"/>
</g>
</svg>
