<?xml version="1.0" standalone="no"?>
<!DOCTYPE svg PUBLIC "-//W3C//DTD SVG 20010904//EN"
 "http://www.w3.org/TR/2001/REC-SVG-20010904/DTD/svg10.dtd">
<svg version="1.0" xmlns="http://www.w3.org/2000/svg"
 width="192.000000pt" height="192.000000pt" viewBox="0 0 192.000000 192.000000"
 preserveAspectRatio="xMidYMid meet">

<g transform="translate(0.000000,192.000000) scale(0.100000,-0.100000)"
fill="#000000" stroke="none">
<path d="M0 960 l0 -960 960 0 960 0 0 960 0 960 -960 0 -960 0 0 -960z m677
748 l53 -52 53 52 c29 29 57 52 62 52 13 0 115 -102 115 -115 0 -5 -62 -72
-137 -147 l-138 -138 338 -337 337 -338 138 138 c75 75 142 137 147 137 13 0
115 -102 115 -114 0 -6 -23 -34 -52 -63 l-52 -53 52 -53 c29 -29 52 -57 52
-63 0 -5 -36 -45 -80 -89 l-80 -79 57 -58 58 -58 -63 -62 -62 -63 -58 58 -58
57 -79 -80 c-44 -44 -84 -80 -89 -80 -6 0 -34 23 -63 52 l-53 52 -53 -52 c-29
-29 -57 -52 -62 -52 -13 0 -115 102 -115 115 0 5 62 72 137 147 l138 138 -338
337 -337 338 -138 -138 c-75 -75 -142 -137 -147 -137 -13 0 -115 102 -115 114
0 6 23 34 52 63 l52 53 -52 53 c-29 29 -52 57 -52 63 0 5 36 45 80 89 l80 79
-57 58 -58 58 63 62 62 63 58 -58 58 -57 79 80 c44 44 84 80 89 80 6 0 34 -23
63 -52z"/>
</g>
</svg>
